# Rhino

g object_1
v 6859.931640625 -3341.593994140625 2750
v 210.9315185546875 -3341.593994140625 2750
v -6438.068359375 -3341.593994140625 2750
v -6438.068359375 -3341.593994140625 2700
v 210.9315185546875 -3341.593994140625 2700
v 6859.931640625 -3341.593994140625 2700
v -6438.068359375 -3341.593994140625 2700
v -6438.068359375 -3341.593994140625 2750
v -6438.068359375 -201.5939788818359 2750
v -6438.068359375 2938.406005859375 2750
v -6438.068359375 2938.406005859375 2700
v -6438.068359375 -201.5939788818359 2700
v -6438.068359375 2938.406005859375 2700
v -6438.068359375 2938.406005859375 2750
v 210.9315185546875 2938.406005859375 2750
v 6859.931640625 2938.406005859375 2750
v 6859.931640625 2938.406005859375 2700
v 210.9315185546875 2938.406005859375 2700
v 6859.931640625 -3341.593994140625 2750
v 6859.931640625 -3341.593994140625 2700
v 6859.931640625 2938.406005859375 2700
v 6859.931640625 2938.406005859375 2750
v 6859.931640625 -201.5939788818359 2750
v 6859.931640625 -201.5939788818359 2700
v 6859.931640625 -3341.593994140625 2700
v 210.9315185546875 -3341.593994140625 2700
v -6438.068359375 -3341.593994140625 2700
v -6438.068359375 -201.5939788818359 2700
v -6438.068359375 2938.406005859375 2700
v 210.9315185546875 2938.406005859375 2700
v 6859.931640625 2938.406005859375 2700
v 6859.931640625 -201.5939788818359 2700
v -6438.068359375 -3341.593994140625 2750
v 210.9315185546875 -3341.593994140625 2750
v 6859.931640625 -3341.593994140625 2750
v -6438.068359375 2938.406005859375 2750
v -6438.068359375 -201.5939788818359 2750
v 6859.931640625 2938.406005859375 2750
v 210.9315185546875 2938.406005859375 2750
v 6859.931640625 -201.5939788818359 2750
vt 0.003734122728928924 0.99106764793396
vt 0.003734122728928924 0.495534211397171
vt 0.003734122728928924 7.452751447090122e-07
vt 0.007466006092727184 7.452751447090122e-07
vt 0.007466006092727184 0.495534211397171
vt 0.007466006092727184 0.99106764793396
vt 0.007467506919056177 0.007654130924493074
vt 0.007467506919056177 0.00392224732786417
vt 0.2418297827243805 0.00392224732786417
vt 0.4761920869350433 0.00392224732786417
vt 0.4761920869350433 0.007654130924493074
vt 0.2418297827243805 0.007654130924493074
vt 0.003732630051672459 0.99106764793396
vt 7.463767133231158e-07 0.99106764793396
vt 7.463767133231158e-07 0.495534211397171
vt 7.463767133231158e-07 7.452751447090122e-07
vt 0.003732630051672459 7.452751447090122e-07
vt 0.003732630051672459 0.495534211397171
vt 0.4761920869350433 7.463767133231158e-07
vt 0.4761920869350433 0.003732630051672459
vt 0.007467506919056177 0.003732630051672459
vt 0.007467506919056177 7.463767133231158e-07
vt 0.2418297827243805 7.463767133231158e-07
vt 0.2418297827243805 0.003732630051672459
vt 0.9985343813896179 0.9689134359359741
vt 0.5030009746551514 0.9689134359359741
vt 0.007467520423233509 0.9689134359359741
vt 0.007467520423233509 0.7345511317253113
vt 0.007467520423233509 0.5001888871192932
vt 0.5030009746551514 0.5001888871192932
vt 0.9985343813896179 0.5001888871192932
vt 0.9985343813896179 0.7345511317253113
vt 0.007467520423233509 0.007843747735023499
vt 0.5030009746551514 0.007843747735023499
vt 0.9985343813896179 0.007843747735023499
vt 0.007467520423233509 0.4765683114528656
vt 0.007467520423233509 0.2422060370445252
vt 0.9985343813896179 0.4765683114528656
vt 0.5030009746551514 0.4765683114528656
vt 0.9985343813896179 0.2422060370445252
vn -4.071541462791367e-17 -1 0
vn -4.071541462791367e-17 -1 0
vn -4.071541462791367e-17 -1 0
vn -4.071541462791367e-17 -1 0
vn -4.071541462791367e-17 -1 0
vn -4.071541462791367e-17 -1 0
vn -1 0 0
vn -1 0 0
vn -1 0 0
vn -1 0 0
vn -1 0 0
vn -1 0 0
vn -4.071541462791367e-17 1 0
vn -4.071541462791367e-17 1 0
vn -4.071541462791367e-17 1 0
vn -4.071541462791367e-17 1 0
vn -4.071541462791367e-17 1 0
vn -4.071541462791367e-17 1 0
vn 1 0 0
vn 1 0 0
vn 1 0 0
vn 1 0 0
vn 1 0 0
vn 1 0 0
vn 0 0 -1
vn 0 0 -1
vn 0 0 -1
vn 0 0 -1
vn 0 0 -1
vn 0 0 -1
vn 0 0 -1
vn 0 0 -1
vn 0 0 1
vn 0 0 1
vn 0 0 1
vn 0 0 1
vn 0 0 1
vn 0 0 1
vn 0 0 1
vn 0 0 1
f 2/2/2 3/3/3 4/4/4 5/5/5
f 1/1/1 2/2/2 5/5/5 6/6/6
f 9/9/9 10/10/10 11/11/11 12/12/12
f 8/8/8 9/9/9 12/12/12 7/7/7
f 15/15/15 16/16/16 17/17/17 18/18/18
f 14/14/14 15/15/15 18/18/18 13/13/13
f 23/23/23 19/19/19 20/20/20 24/24/24
f 22/22/22 23/23/23 24/24/24 21/21/21
f 30/30/30 31/31/31 32/32/32
f 30/30/30 28/28/28 29/29/29
f 26/26/26 30/30/30 32/32/32 25/25/25
f 30/30/30 26/26/26 27/27/27 28/28/28
f 34/34/34 35/35/35 40/40/40
f 34/34/34 37/37/37 33/33/33
f 39/39/39 34/34/34 40/40/40
f 34/34/34 39/39/39 37/37/37
f 39/39/39 36/36/36 37/37/37
f 38/38/38 39/39/39 40/40/40
g object_2
v 13061.931640625 -15201.59375 2200
v 10061.931640625 -15201.59375 2200
v 7061.931640625 -15201.59375 2200
v 7061.931640625 -15201.59375 2150
v 10061.931640625 -15201.59375 2150
v 13061.931640625 -15201.59375 2150
v 7061.931640625 -15201.59375 2150
v 7061.931640625 -15201.59375 2200
v 7061.931640625 -9302.59375 2200
v 7061.931640625 -3403.593994140625 2200
v 7061.931640625 -3403.593994140625 2150
v 7061.931640625 -9302.59375 2150
v 7061.931640625 -3403.593994140625 2150
v 7061.931640625 -3403.593994140625 2200
v 10061.931640625 -3403.593994140625 2200
v 13061.931640625 -3403.593994140625 2200
v 13061.931640625 -3403.593994140625 2150
v 10061.931640625 -3403.593994140625 2150
v 13061.931640625 -15201.59375 2200
v 13061.931640625 -15201.59375 2150
v 13061.931640625 -3403.593994140625 2150
v 13061.931640625 -3403.593994140625 2200
v 13061.931640625 -9302.59375 2200
v 13061.931640625 -9302.59375 2150
v 13061.931640625 -15201.59375 2150
v 10061.931640625 -15201.59375 2150
v 7061.931640625 -15201.59375 2150
v 7061.931640625 -9302.59375 2150
v 7061.931640625 -3403.593994140625 2150
v 10061.931640625 -3403.593994140625 2150
v 13061.931640625 -3403.593994140625 2150
v 13061.931640625 -9302.59375 2150
v 7061.931640625 -15201.59375 2200
v 10061.931640625 -15201.59375 2200
v 13061.931640625 -15201.59375 2200
v 7061.931640625 -3403.593994140625 2200
v 7061.931640625 -9302.59375 2200
v 13061.931640625 -3403.593994140625 2200
v 10061.931640625 -3403.593994140625 2200
v 13061.931640625 -9302.59375 2200
vt 0.004169152583926916 0.4999991655349731
vt 0.004169152583926916 0.25
vt 0.004169152583926916 8.333305459018447e-07
vt 0.008335805498063564 8.333305459018447e-07
vt 0.008335805498063564 0.25
vt 0.008335805498063564 0.4999991655349731
vt 0.01667244359850884 0.9831642508506775
vt 0.01250579208135605 0.9831642508506775
vt 0.01250579208135605 0.4915825426578522
vt 0.01250579208135605 8.333305459018447e-07
vt 0.01667244359850884 8.333305459018447e-07
vt 0.01667244359850884 0.4915825426578522
vt 0.004167485982179642 0.4999991655349731
vt 8.333305459018447e-07 0.4999991655349731
vt 8.333305459018447e-07 0.25
vt 8.333305459018447e-07 8.333305459018447e-07
vt 0.004167485982179642 8.333305459018447e-07
vt 0.004167485982179642 0.25
vt 0.008337472565472126 8.333305459018447e-07
vt 0.01250412501394749 8.333305459018447e-07
vt 0.01250412501394749 0.9831642508506775
vt 0.008337472565472126 0.9831642508506775
vt 0.008337472565472126 0.4915825426578522
vt 0.01250412501394749 0.4915825426578522
vt 0.9983726739883423 8.30889121061773e-07
vt 0.9983726739883423 0.249267578125
vt 0.9983726739883423 0.4985343217849731
vt 0.5075233578681946 0.4985343217849731
vt 0.0166741106659174 0.4985343217849731
vt 0.0166741106659174 0.249267578125
vt 0.0166741106659174 8.30889121061773e-07
vt 0.5075233578681946 8.30889121061773e-07
vt 0.0166741106659174 0.9985343217849731
vt 0.0166741106659174 0.749267578125
vt 0.0166741106659174 0.5000008344650269
vt 0.9983726739883423 0.9985343217849731
vt 0.5075233578681946 0.9985343217849731
vt 0.9983726739883423 0.5000008344650269
vt 0.9983726739883423 0.749267578125
vt 0.5075233578681946 0.5000008344650269
vn 0 -1 0
vn 0 -1 0
vn 0 -1 0
vn 0 -1 0
vn 0 -1 0
vn 0 -1 0
vn -1 0 0
vn -1 0 0
vn -1 0 0
vn -1 0 0
vn -1 0 0
vn -1 0 0
vn 0 1 0
vn 0 1 0
vn 0 1 0
vn 0 1 0
vn 0 1 0
vn 0 1 0
vn 1 0 0
vn 1 0 0
vn 1 0 0
vn 1 0 0
vn 1 0 0
vn 1 0 0
vn 0 0 -1
vn 0 0 -1
vn 0 0 -1
vn 0 0 -1
vn 0 0 -1
vn 0 0 -1
vn 0 0 -1
vn 0 0 -1
vn 0 0 1
vn 0 0 1
vn 0 0 1
vn 0 0 1
vn 0 0 1
vn 0 0 1
vn 0 0 1
vn 0 0 1
f 42/42/42 43/43/43 44/44/44 45/45/45
f 41/41/41 42/42/42 45/45/45 46/46/46
f 49/49/49 50/50/50 51/51/51 52/52/52
f 48/48/48 49/49/49 52/52/52 47/47/47
f 55/55/55 56/56/56 57/57/57 58/58/58
f 54/54/54 55/55/55 58/58/58 53/53/53
f 63/63/63 59/59/59 60/60/60 64/64/64
f 62/62/62 63/63/63 64/64/64 61/61/61
f 70/70/70 71/71/71 72/72/72
f 70/70/70 68/68/68 69/69/69
f 68/68/68 70/70/70 72/72/72
f 68/68/68 72/72/72 65/65/65 66/66/66
f 66/66/66 67/67/67 68/68/68
f 80/80/80 77/77/77 74/74/74
f 74/74/74 77/77/77 73/73/73
f 80/80/80 74/74/74 75/75/75
f 79/79/79 80/80/80 78/78/78
f 79/79/79 76/76/76 77/77/77
f 80/80/80 79/79/79 77/77/77
